# xmcd CD database file
#
# Track frame offsets:
#	150
#	8930
#	38855
#	62767
#	90960
#	119470
#	142892
#	172250
#	195772
#	224160
#	247762
#	279352
#	283307
#	327262
#
# Disc length: 4795 seconds
#
# Revision: 4
# Processed by: cddbd v1.5.2PL0 Copyright (c) Steve Scherf et al.
# Submitted via: CDex 1.70beta3
#
DISCID=ca12b90e
DTITLE=Ananda Project - Morning Light
DYEAR=2003
DGENRE=House
TTITLE0=Suite Dreams(Intro)
TTITLE1=I Hear You Dreaming
TTITLE2=Rain Down
TTITLE3=Tangerine
TTITLE4=Kiss Kiss Kiss
TTITLE5=Icu
TTITLE6=Justice, Mercy
TTITLE7=The One
TTITLE8=Suite Dreams
TTITLE9=Secrets
TTITLE10=Can You Find The Heart
TTITLE11=Suite Dreams(Reprise)
TTITLE12=I Hear You Dreaming(Larry Heard Noctunal Mix)
TTITLE13=データエラィク 14
EXTD=YEAR: 2003
EXTT0=
EXTT1=
EXTT2=
EXTT3=
EXTT4=
EXTT5=
EXTT6=
EXTT7=
EXTT8=
EXTT9=
EXTT10=
EXTT11=
EXTT12=
EXTT13=
PLAYORDER=
